<svg width="179" height="51" viewBox="0 0 179 51" fill="none" xmlns="http://www.w3.org/2000/svg">
<path d="M58.6575 40.0683L56.2736 12.6085H63.7364L64.9284 30.5869L73.1686 12.6085H81.5124L82.1343 30.5351L90.9446 12.6085H99.4439L85.3475 40.0683H76.0708L75.5525 23.2816L67.6751 40.0683H58.6575Z" fill="black"/>
<path d="M106.73 40.8454C100.718 40.8454 96.2611 36.1824 96.2611 28.8771C96.2611 19.9139 102.998 11.8314 111.498 11.8314C115.125 11.8314 117.82 13.3339 119.22 15.7172L119.893 12.6085H127.874L122.018 40.0683H114.037L114.607 37.4259C112.534 39.6538 109.787 40.8454 106.73 40.8454ZM109.269 33.6955C113.312 33.6955 116.836 29.1362 116.836 23.7997C116.836 20.432 114.866 18.9813 112.379 18.9813C108.129 18.9813 104.812 23.696 104.812 28.4626C104.812 31.8822 106.523 33.6955 109.269 33.6955Z" fill="black"/>
<path d="M125.576 40.0683L131.432 12.6085H139.413L138.325 17.7378C140.242 14.3701 143.352 12.3495 146.721 12.3495C147.705 12.3495 148.224 12.4013 149.571 12.7122L147.861 20.8464C146.98 20.6392 146.202 20.5874 145.166 20.5874C140.45 20.5874 137.444 23.2297 136.356 28.359L133.868 40.0683H125.576Z" fill="black"/>
<path d="M144.439 50.6895L152.523 12.6085H160.504L159.986 15.2509C162.007 13.023 164.754 11.8314 167.812 11.8314C173.823 11.8314 178.28 16.4943 178.28 23.7997C178.28 32.7629 171.543 40.8454 163.096 40.8454C159.572 40.8454 156.98 39.4983 155.581 37.2705L152.731 50.6895H144.439ZM162.111 33.6955C166.413 33.6955 169.729 28.9807 169.729 24.2141C169.729 20.7946 168.019 18.9813 165.221 18.9813C161.178 18.9813 157.654 23.5406 157.654 28.8771C157.654 32.2448 159.623 33.6955 162.111 33.6955Z" fill="black"/>
<path d="M20.1797 25.6901L6.97314 13.5918C6.16271 12.8494 6.10176 11.5823 6.92199 10.8507C8.95963 9.0333 11.3625 7.64314 13.9546 6.78759C14.9977 6.44331 16.0638 7.12967 16.3016 8.20183L20.1797 25.6901Z" fill="black"/>
<path d="M33.4375 10.8507C34.2577 11.5823 34.1968 12.8494 33.3863 13.5918L20.1797 25.6901L24.0578 8.20182C24.2956 7.12967 25.3617 6.4433 26.4048 6.78758C28.9969 7.64312 31.3998 9.03329 33.4375 10.8507Z" fill="black"/>
<path d="M39.6648 21.6329C39.4425 20.5559 38.3137 19.9741 37.2647 20.3047L20.1797 25.6901L3.09473 20.3047C2.0457 19.974 0.916899 20.5558 0.694065 21.6327C0.141183 24.3044 0.140903 27.0744 0.694052 29.7475C0.916885 30.8243 2.0457 31.4061 3.09473 31.0755L20.1797 25.6901L6.97313 37.7884C6.1627 38.5308 6.10175 39.7979 6.92198 40.5295C8.95962 42.3469 11.3625 43.7371 13.9546 44.5926C14.9978 44.9369 16.0638 44.2505 16.3016 43.1784L20.1797 25.6901L24.0579 43.1784C24.2956 44.2505 25.3617 44.9369 26.4048 44.5926C28.9969 43.737 31.3998 42.3469 33.4374 40.5295C34.2577 39.7979 34.1967 38.5308 33.3863 37.7883L20.1797 25.6901L37.2647 31.0755C38.3137 31.4062 39.4425 30.8243 39.6649 29.7474C40.2161 27.0773 40.2161 24.3029 39.6648 21.6329Z" fill="black"/>
</svg>
