<svg class="csg-tui-icon-svg css-uui-lrqb7u" xmlns="http://www.w3.org/2000/svg" viewBox="0 0 266 72" width="117" height="32" stroke="none" fill="#fff" role="img"><g stroke="none" stroke-width="1" fill="none" fill-rule="evenodd"><path d="m10.271 15.861 24.176 6.698c.485.132 1.105-.08 1.392-.481l8.837-12.182c.285-.414.184-.981-.229-1.269l-12.517-8.431c-.408-.273-1.067-.259-1.471.031l-20.326 14.831c-.402.299-.339.661 .138.803zm39.424-11.09 1.129 25.17c.016.499 .416 1.026.885 1.18l14.259 4.679c.483.144 .987-.132 1.132-.61l4.111-14.568c.135-.471-.083-1.101-.485-1.395l-20.317-14.843c-.407-.289-.73-.118-.715.387zm22.679 34.235-23.475 8.856c-.469.173-.841.714-.841 1.21l-.024 15.072c.013.503 .425.904 .928.892l15.053-.572c.495-.017 1.016-.419 1.172-.893l7.772-24c.149-.48-.118-.738-.584-.565zm-25.401 32.259-15.636-19.699c-.307-.393-.939-.586-1.407-.434l-14.271 4.635c-.473.167-.724.684-.558 1.164l5.189 14.213c.171.463 .714.839 1.212.839l25.118.017c.501-.007.661-.338.353-.735zm-39.171-14.417-7.75-24.012c-.153-.475.037-1.108.425-1.414l11.844-9.357c.4-.304.97-.224 1.273.178l8.798 12.202c.292.401 .301 1.062.027 1.479l-13.811 21.033c-.287.412-.645.364-.806-.109z" fill="#fff"></path><path d="m259.892 38.15h.824v-3.706c0-.147-.004-.379-.012-.694-.01-.315-.014-.55-.014-.703v-.192l1.835 5.295h.853l1.817-5.295c0 .339-.002.658-.008.954-.006.296-.01.507-.01.635v3.706h.823v-6.277h-1.226l-1.817 5.307-1.829-5.307h-1.236v6.277zm-5.928-6.277v.748h2.143v5.53h.871v-5.53h2.145v-.748h-5.159zm-33.974 12.732-8.424 2.608c-1.687.522-2.646 1.476-2.646 3.282 0 2.706 1.729 4.083 4.383 4.083 2.834 0 4.426-1.233 6.687-2.943v-7.029zm8.623 9.906c.169.5 .481 1.27.604 1.622-1.512 1.313-2.936 1.867-4.555 1.867-2.504 0-3.754-1.711-4.529-4.324-1.778 1.948-4.522 4.324-9.002 4.324-4.762 0-7.316-2.803-7.316-6.509 0-4.42 3.179-5.466 6.886-6.504l9.289-2.714v-.996c0-3.896-1.828-6.935-5.967-6.935-2.699 0-3.998 1.095-3.998 3.516 0 .478.097 1.334.24 2.278l-3.998.477c-.671-.665-1.058-1.42-1.058-2.565 0-3.897 4.334-6.177 9.728-6.177 5.922 0 9.867 2.425 9.867 9.123v10.448c0 2.088.819 3.226 2.265 3.226.324 0 .948-.05 1.544-.157zm18.481-22.64c-3.515 0-5.683 3.33-7.945 7.274l.239-7.274h-1.682l-6.981 2.376v1.139l3.608 1.666v15.911c0 2.186-1.633 2.424-3.848 2.71v1.852h13.479v-1.852c-3.563-.381-4.815-.524-4.815-2.898v-11.403c3.229-3.702 5.247-4.417 8.331-4.417h1.973v-4.419c-.481-.38-1.204-.665-2.359-.665zm-48.355 22.73c-2.939 0-4.428-1.518-4.428-4.938v-14.704h7.51v-2.61h-7.51v-5.419h-1.444c-2.46 3.039-4.528 4.847-7.081 6.366v1.663h3.709v16.296c0 4.892 3.321 6.745 6.978 6.745 2.924 0 4.954-1.291 6.218-2.503-.217-.475-.468-.943-.68-1.501-1.096.433-2.168.605-3.272.605zm-86.689.503c-9.77 0-14.012-8.556-14.012-17.339 0-8.077 3.502-14.824 13.136-14.824 5.53 0 9.241 2.044 11.407 8.316h1.82l-.277-8.075c-2.255-1.376-6.127-3.181-12.626-3.181-10.74 0-19.498 7.595-19.498 19.709 0 9.598 7.054 18.291 19.038 18.291 5.943 0 10.137-1.19 13.964-2.851l1.014-8.981h-1.914c-2.168 5.896-4.909 8.937-12.052 8.937zm38.466-9.027c0-6.129-3.37-11.261-9.147-11.261-4.811 0-7.221 3.803-7.221 8.981 0 6.127 3.371 11.257 9.148 11.257 4.811 0 7.22-3.8 7.22-8.977zm5.107-1.615c0 8.313-6.359 13.538-13.772 13.538-7.606 0-12.806-5.272-12.806-12.589 0-8.314 6.353-13.54 13.767-13.54 7.609 0 12.811 5.273 12.811 12.591zm28.686 2.942c0 6.796-6.391 10.595-14.196 10.595-4.617 0-8.673-1.285-11.08-3.231l-.385-8.885h1.783c1.493 5.135 4.767 9.313 10.446 9.313 5.296 0 8.851-2.468 8.851-6.557 0-3.606-2.881-5.178-6.878-6.743l-5.247-2.043c-4.623-1.805-8.57-3.896-8.57-9.884 0-5.171 5.352-9.969 12.812-9.969 4.342 0 8.418 1.229 10.878 3.131v8.075h-1.686c-1.253-5.13-4.08-8.405-9.67-8.405-4.478 0-7.799 2.322-7.799 6.127 0 3.135 2.209 4.555 5.912 5.983l5.633 2.186c5.342 2.096 9.196 4.181 9.196 10.308z" fill="#fff"></path></g></svg>