<?xml version="1.0" encoding="UTF-8" standalone="no"?>
<!-- Created with Inkscape (http://www.inkscape.org/) -->

<svg
   xmlns:dc="http://purl.org/dc/elements/1.1/"
   xmlns:cc="http://creativecommons.org/ns#"
   xmlns:rdf="http://www.w3.org/1999/02/22-rdf-syntax-ns#"
   xmlns:svg="http://www.w3.org/2000/svg"
   xmlns="http://www.w3.org/2000/svg"
   version="1.1"
   width="847"
   height="149"
   id="svg3182">
  <defs
     id="defs3184">
    <clipPath
       id="clipPath76">
      <path
         d="m 238,41.681 73.154,0 0,21.73 -73.154,0 0,-21.73 z"
         id="path78" />
    </clipPath>
  </defs>
  <metadata
     id="metadata3187">
    <rdf:RDF>
      <cc:Work
         rdf:about="">
        <dc:format>image/svg+xml</dc:format>
        <dc:type
           rdf:resource="http://purl.org/dc/dcmitype/StillImage" />
        <dc:title></dc:title>
      </cc:Work>
    </rdf:RDF>
  </metadata>
  <g
     transform="translate(33.275242,-572.44455)"
     id="layer1">
    <path
       d="m -31.418142,625.77347 c 0,-41.59952 23.3587203,-51.41251 62.610702,-51.41251 l 65.556059,0 c 49.458661,0 56.326301,17.84711 56.326301,45.5218 l 0,4.5201 -42.79516,0 c 0,-14.12897 -8.04869,-15.89326 -21.973524,-15.89326 l -47.30068,0 c -21.988109,0 -27.674689,5.29289 -27.674689,29.62854 l 0,17.65756 c 0,24.35022 5.68658,29.64312 27.674689,29.64312 l 46.513307,0 c 11.387741,0 22.760897,-1.7643 22.760897,-15.49958 l 0,-4.12642 -54.168315,0 0,-29.43898 97.750845,0 0,40.43304 c 0,40.81215 -21.20073,42.78058 -70.265709,42.78058 l -52.404021,0 c -39.2519817,0 -62.610702,-9.813 -62.610702,-51.41252 l 0,-42.40147 z"
       id="path82"
       style="fill:#ffffff;fill-opacity:1;fill-rule:nonzero;stroke:none" />
    <path
       d="m 164.65222,575.92404 155.43318,0 0,32.96758 -111.86523,0 0,22.77548 105.9891,0 0,29.43899 -105.9891,0 0,22.7609 114.4169,0 0,34.14864 -157.98485,0 0,-142.09159 z"
       id="path86"
       style="fill:#ffffff;fill-opacity:1;fill-rule:nonzero;stroke:none" />
    <path
       d="m 335.8241,575.92258 43.58253,0 0,142.09159 -43.58253,0 0,-142.09159 z"
       id="path88"
       style="fill:#ffffff;fill-opacity:1;fill-rule:nonzero;stroke:none" />
    <path
       d="m 392.56159,625.77347 c 0,-41.59952 23.35872,-51.41251 62.6107,-51.41251 l 51.22296,0 c 62.01289,0 70.07617,13.34159 69.6679,53.57049 l -43.56795,0 0,-3.92228 c 0,-10.20668 -7.45088,-13.15204 -20.41337,-13.15204 l -47.49023,0 c -22.96503,0 -27.281,10.80451 -27.281,28.46206 l 0,15.31003 c 0,20.60291 4.31597,28.46206 24.93346,28.46206 l 46.51331,0 c 19.62599,0 25.50213,-1.96843 25.50213,-19.64057 l 43.56795,0 0,13.35617 c 0,23.94196 -8.63194,42.78058 -52.40402,42.78058 l -70.25114,0 c -39.25198,0 -62.6107,-9.813 -62.6107,-51.41252 l 0,-42.40147 z"
       id="path92"
       style="fill:#ffffff;fill-opacity:1;fill-rule:nonzero;stroke:none" />
    <path
       d="m 630.24021,654.6263 c 0,20.60292 4.31597,28.46206 24.93347,28.46206 l 55.72848,0 c 20.60291,0 24.91888,-7.85914 24.91888,-28.46206 l 0,-15.31002 c 0,-17.65756 -4.31597,-28.46206 -27.26642,-28.46206 l -51.03341,0 c -22.96503,0 -27.281,10.8045 -27.281,28.46206 l 0,15.31002 z M 585.4912,625.77055 c 0,-41.59952 23.35872,-51.41251 62.6107,-51.41251 l 69.85745,0 c 39.26656,0 62.62528,9.81299 62.62528,51.41251 l 0,42.40147 c 0,41.59952 -23.35872,51.41252 -62.62528,51.41252 l -69.85745,0 c -39.25198,0 -62.6107,-9.813 -62.6107,-51.41252 l 0,-42.40147 z"
       id="path96"
       style="fill:#ffffff;fill-opacity:1;fill-rule:nonzero;stroke:none" />
    <path
       d="m 797.14133,701.86428 c 2.20173,0 5.62826,0.36452 5.62826,-2.84329 0,-2.42044 -2.14341,-2.71206 -4.08268,-2.71206 l -4.49094,0 0,5.55535 2.94536,0 z m 7.36339,8.76317 -2.27463,0 -4.50552,-7.24675 -3.5286,0 0,7.24675 -1.92469,0 0,-15.73288 6.86764,0 c 1.31229,0 2.63916,0.0875 3.82022,0.7728 1.16648,0.67072 1.7643,2.07049 1.7643,3.39736 0,3.09117 -2.17257,4.24307 -4.97212,4.31597 l 4.7534,7.24675 z m 5.33664,-7.88831 c 0,-6.80932 -5.52619,-12.32092 -12.33551,-12.32092 -6.85305,0 -12.36466,5.5116 -12.36466,12.32092 0,6.8968 5.51161,12.40841 12.36466,12.40841 6.80932,0 12.33551,-5.51161 12.33551,-12.40841 m -26.43531,0 c 0,-7.72792 6.29898,-14.0269 14.0998,-14.0269 7.75708,0 14.0269,6.29898 14.0269,14.0269 0,7.80082 -6.26982,14.11438 -14.0269,14.11438 -7.80082,0 -14.0998,-6.31356 -14.0998,-14.11438"
       id="path100"
       style="fill:#ffffff;fill-opacity:1;fill-rule:nonzero;stroke:none" />
  </g>
</svg>
