<svg width="24" height="16" viewBox="0 0 24 16" fill="none" xmlns="http://www.w3.org/2000/svg">
<g clip-path="url(#clip0_48_11)">
<path d="M6.915 0.0010004C4.947 0.0010004 3.232 1.281 2.044 3.114C0.704 5.179 0 7.854 0 10.42C0 11.126 0.07 11.789 0.21 12.393C0.278736 12.6853 0.367274 12.9727 0.475 13.253C0.578164 13.5162 0.702227 13.7706 0.846 14.014C1.542 15.173 2.664 15.941 4.439 15.941C5.936 15.941 7.072 15.27 8.404 13.497C9.164 12.485 9.548 11.871 11.067 9.177L11.823 7.838L12.009 7.513C12.07 7.613 12.13 7.709 12.192 7.813L14.344 11.408C15.068 12.618 16.009 13.964 16.814 14.722C17.86 15.709 18.806 15.942 19.874 15.942C20.949 15.942 21.75 15.587 22.329 15.099C22.6523 14.823 22.9262 14.494 23.139 14.126C23.681 13.187 24 11.999 24 10.381C24 7.661 23.319 5.024 21.916 2.931C20.634 1.019 18.959 0.0010004 17.2 0.0010004C16.153 0.0010004 15.112 0.468 14.147 1.309C13.495 1.879 12.89 2.599 12.327 3.359C11.637 2.484 10.992 1.812 10.369 1.303C9.187 0.337 8.054 0 6.915 0V0.0010004ZM17.075 2.054C18.222 2.054 19.263 2.812 20.067 4.053C21.199 5.801 21.714 8.248 21.714 10.453C21.714 12.001 21.346 13.353 19.875 13.353C19.295 13.353 18.848 13.123 18.211 12.349C17.715 11.748 16.868 10.471 15.379 7.991L14.762 6.963C14.361 6.29219 13.9425 5.63197 13.507 4.983C13.577 4.874 13.648 4.759 13.718 4.656C14.838 2.989 15.835 2.054 17.075 2.054ZM6.874 2.607C8.139 2.607 8.932 3.398 9.549 4.053C9.856 4.38 10.286 4.924 10.783 5.632L9.763 7.198C9.006 8.361 7.881 10.215 6.926 11.536C5.735 13.185 5.116 13.353 4.44 13.353C3.916 13.353 3.402 13.116 3.057 12.559C2.794 12.133 2.593 11.429 2.593 10.513C2.593 8.292 3.223 5.978 4.253 4.425C4.707 3.738 5.217 3.199 5.786 2.892C6.11892 2.707 6.49313 2.60897 6.874 2.607Z" fill="white"/>
</g>
<defs>
<clipPath id="clip0_48_11">
<rect width="24" height="15.942" fill="white"/>
</clipPath>
</defs>
</svg>
