<svg width="24" height="10" viewBox="0 0 24 10" fill="none" xmlns="http://www.w3.org/2000/svg">
<g clip-path="url(#clip0_46_3)">
<path d="M23.769 8.07789e-05C23.832 8.07789e-05 23.888 0.020081 23.929 0.063081C23.951 0.0837706 23.9687 0.10869 23.9809 0.136352C23.9931 0.164014 23.9996 0.193851 24 0.224081V8.00208C24.0004 8.03235 23.9944 8.06237 23.9824 8.09013C23.9703 8.11789 23.9524 8.14276 23.93 8.16308C23.9088 8.184 23.8837 8.20044 23.856 8.21143C23.8283 8.22243 23.7988 8.22775 23.769 8.22708H22.07C22.0097 8.22788 21.9515 8.20476 21.9082 8.16278C21.8649 8.1208 21.8401 8.06338 21.839 8.00308V5.28808C21.8398 5.25944 21.8346 5.23095 21.8237 5.20444C21.8129 5.17792 21.7966 5.15396 21.776 5.13408C21.734 5.09208 21.685 5.07808 21.614 5.07808H19.237C19.1784 5.07731 19.1214 5.09713 19.076 5.13408C19.0544 5.15357 19.037 5.1773 19.025 5.2038C19.0129 5.23029 19.0065 5.25898 19.006 5.28808V8.00208C19.006 8.14908 18.928 8.22708 18.774 8.22708H17.091C16.936 8.22708 16.859 8.14908 16.859 8.00208V0.224081C16.859 0.0770808 16.936 8.07789e-05 17.091 8.07789e-05H18.774C18.928 8.07789e-05 19.005 0.0770808 19.005 0.224081V2.85408C19.005 3.00208 19.083 3.07908 19.237 3.07908H21.614C21.678 3.07908 21.734 3.05808 21.776 3.01608C21.7969 2.9947 21.8132 2.96934 21.824 2.9415C21.8348 2.91367 21.8399 2.88393 21.839 2.85408V0.224081C21.8384 0.193783 21.8443 0.163706 21.8564 0.135915C21.8685 0.108124 21.8864 0.0832771 21.909 0.063081C21.9303 0.0423454 21.9555 0.0260856 21.9831 0.0152642C22.0108 0.00444287 22.0403 -0.000720239 22.07 8.07789e-05H23.769ZM15.395 6.20708C15.458 6.20708 15.514 6.22708 15.549 6.27008C15.5697 6.29134 15.586 6.31654 15.5968 6.3442C15.6076 6.37185 15.6128 6.4014 15.612 6.43108V7.98108C15.6123 8.04082 15.5898 8.09842 15.549 8.14208C15.5292 8.16289 15.5053 8.17934 15.4788 8.19036C15.4522 8.20138 15.4237 8.20674 15.395 8.20608H9.945C9.791 8.20608 9.714 8.12808 9.714 7.98108V0.224081C9.714 0.0770808 9.791 8.07789e-05 9.945 8.07789e-05H11.615C11.769 8.07789e-05 11.845 0.0770808 11.845 0.224081V6.00408C11.844 6.03341 11.8498 6.06258 11.8619 6.0893C11.8741 6.11602 11.8922 6.13956 11.915 6.15808C11.958 6.20008 12.014 6.21408 12.077 6.21408H15.395V6.20708ZM7.645 0.105081C7.806 0.175081 7.946 0.273081 8.065 0.393081C8.185 0.512081 8.275 0.653081 8.353 0.813081C8.423 0.975081 8.458 1.15008 8.458 1.33308V7.98108C8.45879 8.00972 8.45359 8.03821 8.44274 8.06472C8.43189 8.09124 8.41563 8.1152 8.395 8.13508C8.37521 8.15589 8.35129 8.17234 8.32477 8.18336C8.29825 8.19438 8.26971 8.19974 8.241 8.19908H6.649C6.62106 8.20058 6.59316 8.19558 6.56748 8.18447C6.5418 8.17337 6.51904 8.15646 6.501 8.13508C6.46414 8.09232 6.44422 8.03753 6.445 7.98108V1.93608H5.162V7.98108C5.16278 8.03753 5.14286 8.09232 5.106 8.13508C5.0876 8.15576 5.06492 8.1722 5.03954 8.18325C5.01416 8.1943 4.98668 8.1997 4.959 8.19908H3.514C3.48512 8.19988 3.4564 8.19459 3.42969 8.18357C3.40299 8.17254 3.3789 8.15602 3.359 8.13508C3.33837 8.1152 3.32211 8.09124 3.31126 8.06472C3.30041 8.03821 3.29521 8.00972 3.296 7.98108V1.93608H2.013V7.98108C2.013 8.12808 1.943 8.19908 1.795 8.19908H0.217C0.07 8.19908 0 8.12908 0 7.98108V0.217081C0 0.0700808 0.07 8.07789e-05 0.217 8.07789e-05H7.12C7.309 8.07789e-05 7.476 0.0350808 7.645 0.105081ZM23.986 9.41908C23.993 9.42608 23.993 9.43308 23.993 9.43908V9.88908C23.993 9.91708 23.986 9.94508 23.979 9.97308C23.965 10.0011 23.951 10.0221 23.937 10.0431C23.9181 10.0635 23.8939 10.078 23.867 10.0851C23.839 10.0991 23.811 10.0991 23.783 10.0991H23.144C23.1155 10.0978 23.0873 10.0931 23.06 10.0851C23.032 10.0711 23.011 10.0571 22.99 10.0431C22.9696 10.0242 22.9551 9.99993 22.948 9.97308C22.934 9.94508 22.934 9.91708 22.934 9.88908V9.04708C22.934 9.01908 22.941 8.99108 22.948 8.96308C22.955 8.93508 22.976 8.91308 22.99 8.89308C23.0089 8.87271 23.0331 8.85814 23.06 8.85108C23.088 8.83708 23.116 8.83708 23.144 8.83708H23.894C23.902 8.83708 23.916 8.83708 23.916 8.84408C23.923 8.85108 23.923 8.85808 23.923 8.86408V9.10408C23.923 9.11008 23.923 9.12408 23.916 9.12408C23.909 9.13108 23.902 9.13108 23.895 9.13108H23.292C23.285 9.13108 23.271 9.13108 23.271 9.13808C23.264 9.14508 23.264 9.15208 23.264 9.15908V9.74908C23.264 9.75608 23.264 9.76308 23.271 9.76908C23.278 9.77708 23.285 9.77708 23.291 9.77708H23.649C23.656 9.77708 23.663 9.77708 23.67 9.77008C23.677 9.76308 23.677 9.75608 23.677 9.74808V9.43308C23.677 9.42608 23.677 9.41208 23.684 9.41208C23.691 9.40508 23.698 9.40508 23.705 9.40508H23.958C23.972 9.40508 23.979 9.41208 23.986 9.41908ZM22.52 8.85108C22.548 8.86508 22.57 8.87908 22.59 8.89308C22.6104 8.91195 22.6249 8.93623 22.632 8.96308C22.646 8.99108 22.646 9.01908 22.646 9.04708V10.0711C22.646 10.0781 22.646 10.0921 22.639 10.0921C22.632 10.0991 22.625 10.0991 22.619 10.0991H22.366C22.359 10.0991 22.352 10.0991 22.345 10.0921C22.338 10.0851 22.338 10.0781 22.338 10.0721V9.18008C22.338 9.17308 22.338 9.16608 22.331 9.16008C22.324 9.15208 22.317 9.15208 22.31 9.15208H21.952C21.945 9.15208 21.931 9.15208 21.931 9.15908C21.931 9.16608 21.924 9.17308 21.924 9.18008V10.0711C21.924 10.0921 21.91 10.1061 21.889 10.1061H21.636C21.6314 10.1062 21.6268 10.1054 21.6224 10.1037C21.6181 10.102 21.6142 10.0994 21.6109 10.0961C21.6077 10.0929 21.6051 10.0889 21.6034 10.0846C21.6017 10.0803 21.6009 10.0757 21.601 10.0711V8.87108C21.601 8.85108 21.615 8.83708 21.636 8.83708H22.457C22.471 8.83008 22.499 8.83708 22.52 8.85108ZM21.3 10.0631C21.3 10.0841 21.286 10.0981 21.265 10.0981H21.012C21.0074 10.0982 21.0028 10.0974 20.9984 10.0957C20.9941 10.094 20.9902 10.0914 20.9869 10.0881C20.9837 10.0849 20.9811 10.0809 20.9794 10.0766C20.9777 10.0723 20.9769 10.0677 20.977 10.0631V8.86308C20.977 8.84308 20.991 8.82908 21.012 8.82908H21.265C21.285 8.82908 21.3 8.84308 21.3 8.86408V10.0631ZM20.325 9.36208C20.318 9.36908 20.318 9.36908 20.325 9.37608L20.745 10.0701C20.753 10.0771 20.753 10.0841 20.745 10.0911C20.739 10.0981 20.739 10.0981 20.725 10.0981H20.423C20.416 10.0981 20.403 10.0981 20.395 10.0911L20.375 10.0711L20.101 9.57908C20.094 9.57208 20.094 9.57208 20.094 9.57908L19.946 9.74008C19.939 9.74708 19.932 9.75508 19.932 9.76908C19.925 9.78308 19.925 9.78908 19.925 9.80408V10.0701C19.925 10.0911 19.911 10.1051 19.89 10.1051H19.645C19.624 10.1051 19.61 10.0911 19.61 10.0701V8.87008C19.61 8.85008 19.624 8.83608 19.645 8.83608H19.897C19.918 8.83608 19.932 8.85008 19.932 8.87108V9.41108L20.402 8.86408C20.41 8.85544 20.4195 8.84832 20.43 8.84308C20.444 8.83608 20.451 8.83608 20.458 8.83608H20.76C20.767 8.83608 20.774 8.83608 20.774 8.84308C20.774 8.85008 20.774 8.85708 20.767 8.86308L20.325 9.36208ZM18.677 9.14408C18.67 9.15108 18.67 9.15808 18.67 9.16508V9.75508C18.67 9.76208 18.67 9.76908 18.677 9.77508C18.684 9.78308 18.691 9.78308 18.697 9.78308H19.28C19.287 9.78308 19.301 9.78308 19.301 9.79008C19.308 9.79708 19.308 9.80408 19.308 9.81008V10.0501C19.308 10.0561 19.308 10.0701 19.301 10.0701C19.294 10.0771 19.287 10.0771 19.28 10.0771H18.558C18.5292 10.0759 18.5007 10.0712 18.473 10.0631C18.4488 10.0506 18.4254 10.0366 18.403 10.0211C18.3826 10.0022 18.3681 9.97793 18.361 9.95108C18.347 9.92308 18.347 9.89508 18.347 9.86708V9.01808C18.347 8.99008 18.354 8.96208 18.361 8.93408C18.3732 8.90972 18.3872 8.88632 18.403 8.86408C18.4219 8.84371 18.4461 8.82914 18.473 8.82208C18.501 8.80808 18.53 8.80808 18.558 8.80808H19.28C19.287 8.80808 19.301 8.80808 19.301 8.81508C19.308 8.82208 19.308 8.82908 19.308 8.83508V9.07508C19.308 9.08108 19.308 9.09508 19.301 9.09508C19.294 9.10208 19.287 9.10208 19.28 9.10208H18.698C18.691 9.13708 18.684 9.14408 18.677 9.14408ZM17.857 8.82908C17.884 8.82908 17.912 8.83608 17.94 8.84308C17.968 8.85708 17.99 8.87108 18.01 8.88508C18.0307 8.90382 18.0457 8.92811 18.053 8.95508C18.0611 8.98241 18.0658 9.01062 18.067 9.03908V10.0631C18.067 10.0701 18.067 10.0841 18.06 10.0841C18.053 10.0911 18.046 10.0911 18.039 10.0911H17.786C17.779 10.0911 17.765 10.0911 17.765 10.0841C17.758 10.0771 17.758 10.0701 17.758 10.0641V9.74008C17.758 9.73308 17.758 9.72008 17.751 9.72008C17.744 9.71208 17.737 9.71208 17.73 9.71208H17.372C17.365 9.71208 17.352 9.71208 17.352 9.71908C17.344 9.72608 17.344 9.73308 17.344 9.74008V10.0631C17.344 10.0841 17.33 10.0981 17.309 10.0981H17.057C17.036 10.0981 17.022 10.0841 17.022 10.0631V9.03908C17.022 9.01108 17.029 8.98308 17.036 8.95508C17.0484 8.93085 17.0625 8.90746 17.078 8.88508C17.0969 8.86471 17.1211 8.85014 17.148 8.84308C17.176 8.82908 17.204 8.82908 17.232 8.82908H17.857ZM17.751 9.43208V9.11608H17.323V9.43208H17.751ZM16.685 8.82908C16.692 8.82908 16.706 8.82908 16.706 8.83608C16.713 8.84308 16.713 8.85008 16.713 8.85608V10.0561C16.713 10.0631 16.713 10.0771 16.706 10.0771C16.699 10.0841 16.692 10.0841 16.685 10.0841H16.432C16.425 10.0841 16.412 10.0841 16.412 10.0771C16.404 10.0701 16.404 10.0631 16.404 10.0571V9.63508C16.404 9.62808 16.404 9.62108 16.397 9.61508C16.39 9.60708 16.383 9.60708 16.377 9.60708H16.019C16.012 9.60708 15.998 9.60708 15.998 9.61408C15.991 9.62108 15.991 9.62808 15.991 9.63508V10.0561C15.991 10.0771 15.977 10.0911 15.956 10.0911H15.703C15.6984 10.0912 15.6938 10.0904 15.6894 10.0887C15.6851 10.087 15.6812 10.0844 15.6779 10.0811C15.6747 10.0779 15.6721 10.0739 15.6704 10.0696C15.6687 10.0653 15.6679 10.0607 15.668 10.0561V8.85608C15.668 8.83608 15.682 8.82208 15.703 8.82208H15.956C15.976 8.82208 15.991 8.83608 15.991 8.85708V9.26408C15.991 9.28408 16.005 9.29908 16.026 9.29908H16.383C16.39 9.29908 16.397 9.29908 16.404 9.29208C16.411 9.28508 16.411 9.27808 16.411 9.27108V8.86408C16.411 8.85708 16.411 8.84308 16.418 8.84308C16.425 8.83608 16.432 8.83608 16.44 8.83608H16.685V8.82908ZM14.742 8.84308C14.749 8.85008 14.749 8.85708 14.749 8.86308V9.09508C14.749 9.10208 14.749 9.10908 14.742 9.11608C14.735 9.12308 14.728 9.12308 14.722 9.12308H14.118C14.111 9.12308 14.111 9.12308 14.111 9.13008V9.32708C14.111 9.33408 14.111 9.33408 14.118 9.33408H14.638C14.644 9.33408 14.651 9.33408 14.658 9.34108C14.665 9.34808 14.665 9.35508 14.665 9.36108V9.54408C14.665 9.55108 14.665 9.56508 14.658 9.56508C14.651 9.57208 14.644 9.57208 14.638 9.57208H14.118C14.111 9.57208 14.111 9.57208 14.111 9.57908V9.77608C14.111 9.78308 14.111 9.78308 14.118 9.78308H14.722C14.728 9.78308 14.742 9.78308 14.742 9.79008C14.749 9.79708 14.749 9.80408 14.749 9.81008V10.0351C14.749 10.0421 14.749 10.0561 14.742 10.0561C14.735 10.0631 14.728 10.0631 14.722 10.0631H13.823C13.8184 10.0632 13.8138 10.0624 13.8094 10.0607C13.8051 10.059 13.8012 10.0564 13.7979 10.0531C13.7947 10.0499 13.7921 10.0459 13.7904 10.0416C13.7887 10.0373 13.7879 10.0327 13.788 10.0281V8.82908C13.788 8.82208 13.788 8.80808 13.795 8.80808C13.802 8.80108 13.809 8.80108 13.816 8.80108H14.714C14.7205 8.81675 14.7301 8.83101 14.742 8.84308ZM13.487 8.84308C13.494 8.85008 13.494 8.85708 13.494 8.86308V9.88808C13.4928 9.91654 13.488 9.94475 13.48 9.97208C13.466 10.0001 13.452 10.0211 13.438 10.0421C13.4191 10.0625 13.3949 10.077 13.368 10.0841C13.34 10.0981 13.312 10.0981 13.283 10.0981H12.645C12.6165 10.0968 12.5883 10.0921 12.561 10.0841C12.533 10.0701 12.512 10.0561 12.491 10.0421C12.4706 10.0232 12.4561 9.99893 12.449 9.97208C12.435 9.94408 12.435 9.91608 12.435 9.88808V8.86408C12.435 8.84308 12.449 8.82908 12.47 8.82908H12.722C12.743 8.82908 12.757 8.84308 12.757 8.86408V9.75408C12.757 9.76208 12.757 9.76908 12.764 9.77608C12.771 9.78308 12.778 9.78308 12.786 9.78308H13.143C13.15 9.78308 13.157 9.78308 13.164 9.77608C13.171 9.76908 13.171 9.76208 13.171 9.75508V8.86408C13.171 8.85708 13.171 8.84308 13.178 8.84308C13.185 8.83608 13.192 8.83608 13.199 8.83608H13.452C13.472 8.82908 13.48 8.83608 13.487 8.84308ZM12.154 9.41808C12.161 9.42508 12.161 9.43208 12.161 9.43808V9.88808C12.1598 9.91654 12.155 9.94475 12.147 9.97208C12.133 10.0001 12.119 10.0211 12.105 10.0421C12.0861 10.0625 12.0619 10.077 12.035 10.0841C12.007 10.0981 11.979 10.0981 11.951 10.0981H11.313C11.2845 10.0968 11.2563 10.0921 11.229 10.0841C11.2045 10.0721 11.1811 10.0581 11.159 10.0421C11.1383 10.0233 11.1233 9.99905 11.116 9.97208C11.102 9.94408 11.102 9.91608 11.102 9.88808V9.04608C11.102 9.01808 11.109 8.99008 11.116 8.96208C11.123 8.93408 11.144 8.91208 11.158 8.89208C11.1769 8.87171 11.2011 8.85714 11.228 8.85008C11.257 8.83608 11.285 8.83608 11.313 8.83608H12.063C12.07 8.83608 12.084 8.83608 12.084 8.84308C12.091 8.85008 12.091 8.85708 12.091 8.86308V9.10308C12.091 9.10908 12.091 9.12308 12.084 9.12308C12.077 9.13008 12.07 9.13008 12.064 9.13008H11.46C11.453 9.13008 11.439 9.13008 11.439 9.13708C11.432 9.14408 11.432 9.15108 11.432 9.15808V9.74808C11.432 9.75508 11.432 9.76208 11.439 9.76808C11.446 9.77608 11.453 9.77608 11.46 9.77608H11.818C11.825 9.77608 11.832 9.77608 11.838 9.76908C11.846 9.76208 11.846 9.75508 11.846 9.74708V9.43208C11.846 9.42508 11.846 9.41108 11.853 9.41108C11.86 9.40408 11.867 9.40408 11.873 9.40408H12.126C12.133 9.40408 12.147 9.41108 12.154 9.41808ZM10.604 8.82808C10.632 8.82808 10.66 8.83608 10.688 8.84308C10.717 8.85708 10.738 8.87108 10.758 8.88508C10.7787 8.90382 10.7937 8.92811 10.801 8.95508C10.809 8.98241 10.8137 9.01062 10.815 9.03908V10.0631C10.815 10.0701 10.815 10.0841 10.808 10.0841C10.801 10.0911 10.794 10.0911 10.787 10.0911H10.527C10.52 10.0911 10.507 10.0911 10.507 10.0841C10.499 10.0771 10.499 10.0701 10.499 10.0641V9.74008C10.499 9.73308 10.499 9.72008 10.492 9.72008C10.485 9.71208 10.478 9.71208 10.472 9.71208H10.106C10.099 9.71208 10.086 9.71208 10.086 9.71908C10.078 9.72608 10.078 9.73308 10.078 9.74008V10.0631C10.078 10.0841 10.064 10.0981 10.043 10.0981H9.791C9.77 10.0981 9.756 10.0841 9.756 10.0631V9.03908C9.756 9.01108 9.763 8.98308 9.77 8.95508C9.78244 8.93085 9.79647 8.90746 9.812 8.88508C9.83087 8.86471 9.85515 8.85014 9.882 8.84308C9.91 8.82908 9.938 8.82908 9.966 8.82908L10.604 8.82808ZM10.492 9.43208V9.11608H10.064V9.43208H10.492ZM9.454 8.84208C9.461 8.85008 9.461 8.85708 9.461 8.86408V9.09508C9.461 9.10208 9.461 9.10908 9.454 9.11608C9.447 9.12308 9.44 9.12308 9.434 9.12308H8.83C8.823 9.12308 8.823 9.12308 8.823 9.13008V9.32708C8.823 9.33408 8.823 9.33408 8.83 9.33408H9.349C9.356 9.33408 9.363 9.33408 9.37 9.34108C9.377 9.34808 9.377 9.35508 9.377 9.36108V9.54408C9.377 9.55108 9.377 9.56508 9.37 9.56508C9.363 9.57208 9.356 9.57208 9.349 9.57208H8.829C8.823 9.57208 8.823 9.57208 8.823 9.57908V9.77608C8.823 9.78308 8.823 9.78308 8.83 9.78308H9.434C9.44 9.78308 9.454 9.78308 9.454 9.79008C9.461 9.79708 9.461 9.80408 9.461 9.81008V10.0351C9.461 10.0421 9.461 10.0561 9.454 10.0561C9.447 10.0631 9.44 10.0631 9.434 10.0631H8.535C8.53037 10.0632 8.52575 10.0624 8.52144 10.0607C8.51714 10.059 8.51322 10.0564 8.50994 10.0531C8.50666 10.0499 8.50409 10.0459 8.50238 10.0416C8.50067 10.0373 8.49986 10.0327 8.5 10.0281V8.82908C8.5 8.82208 8.5 8.80808 8.507 8.80808C8.514 8.80108 8.521 8.80108 8.528 8.80108H9.426C9.43254 8.81675 9.44205 8.83101 9.454 8.84308V8.84208ZM8.283 9.79008C8.29 9.79008 8.297 9.79008 8.303 9.79708C8.311 9.80408 8.311 9.81108 8.311 9.81708V10.0571C8.311 10.0631 8.311 10.0771 8.304 10.0771C8.297 10.0841 8.29 10.0841 8.283 10.0841H7.504C7.49937 10.0842 7.49475 10.0834 7.49044 10.0817C7.48614 10.08 7.48222 10.0774 7.47894 10.0741C7.47567 10.0709 7.47309 10.0669 7.47138 10.0626C7.46967 10.0583 7.46886 10.0537 7.469 10.0491V8.84908C7.469 8.82908 7.483 8.81508 7.504 8.81508H7.757C7.777 8.81508 7.792 8.82908 7.792 8.85008V9.74008C7.792 9.74708 7.792 9.75508 7.799 9.76208C7.806 9.76908 7.813 9.76908 7.82 9.76908H8.283V9.79008ZM6.579 10.0701C6.586 10.0771 6.586 10.0841 6.579 10.0911C6.572 10.0981 6.572 10.0981 6.558 10.0981H6.27C6.263 10.0981 6.249 10.0981 6.242 10.0911L6.221 10.0711L6.031 9.72608C6.031 9.71908 6.025 9.71908 6.018 9.71908H5.8C5.793 9.71908 5.793 9.71908 5.793 9.72608V10.0631C5.793 10.0841 5.779 10.0981 5.758 10.0981H5.506C5.485 10.0981 5.47 10.0841 5.47 10.0631V8.86308C5.47 8.84308 5.485 8.82908 5.506 8.82908H6.326C6.354 8.82908 6.382 8.83608 6.41 8.84308C6.438 8.85708 6.46 8.87108 6.48 8.88508C6.50074 8.90382 6.51566 8.92811 6.523 8.95508C6.53439 8.98154 6.5392 9.01036 6.537 9.03908V9.51608C6.53671 9.56163 6.52162 9.60586 6.494 9.64208C6.46715 9.67733 6.43069 9.70406 6.389 9.71908H6.382C6.375 9.71908 6.375 9.72608 6.375 9.73308V9.74008L6.579 10.0701ZM6.221 9.12308H5.786V9.43208H6.221V9.12308ZM4.98 8.82908C5.008 8.82908 5.036 8.83608 5.064 8.84308C5.092 8.85708 5.113 8.87108 5.134 8.88508C5.15437 8.90395 5.16894 8.92823 5.176 8.95508C5.18405 8.98241 5.18875 9.01062 5.19 9.03908V9.88108C5.19 9.90908 5.183 9.93708 5.176 9.96508C5.162 9.99308 5.148 10.0141 5.134 10.0351C5.11513 10.0555 5.09085 10.07 5.064 10.0771C5.036 10.0911 5.008 10.0911 4.98 10.0911H4.34C4.312 10.0911 4.284 10.0841 4.256 10.0771C4.228 10.0631 4.207 10.0491 4.186 10.0351C4.16563 10.0162 4.15106 9.99193 4.144 9.96508C4.13 9.93708 4.13 9.90908 4.13 9.88108V9.03908C4.13 9.01108 4.137 8.98308 4.144 8.95508C4.151 8.92708 4.172 8.90508 4.186 8.88508C4.20487 8.86471 4.22915 8.85014 4.256 8.84308C4.284 8.82908 4.312 8.82908 4.34 8.82908H4.98ZM4.867 9.13708H4.44V9.79008H4.867V9.13708ZM3.837 8.84308C3.843 8.85008 3.843 8.85708 3.843 8.86308V9.88808C3.843 9.91608 3.836 9.94408 3.829 9.97208C3.815 10.0001 3.801 10.0211 3.787 10.0421C3.76813 10.0625 3.74385 10.077 3.717 10.0841C3.689 10.0981 3.661 10.0981 3.633 10.0981H3.086C3.05754 10.0968 3.02933 10.0921 3.002 10.0841C2.97764 10.0719 2.95424 10.0578 2.932 10.0421C2.91163 10.0232 2.89706 9.99893 2.89 9.97208C2.876 9.94408 2.876 9.91608 2.876 9.88808V9.50208C2.876 9.48108 2.89 9.46708 2.911 9.46708H3.163C3.184 9.46708 3.198 9.48108 3.198 9.50208V9.76208C3.198 9.76908 3.198 9.77608 3.205 9.78208C3.212 9.79008 3.219 9.79008 3.226 9.79008H3.486C3.493 9.79008 3.506 9.79008 3.506 9.78308C3.514 9.77608 3.514 9.76908 3.514 9.76208V8.87108C3.514 8.86408 3.514 8.85008 3.521 8.85008C3.528 8.84308 3.535 8.84308 3.541 8.84308H3.794C3.815 8.82908 3.83 8.83608 3.837 8.84308ZM2.483 8.82908C2.511 8.82908 2.539 8.83608 2.567 8.84308C2.595 8.85708 2.616 8.87108 2.637 8.88508C2.65737 8.90395 2.67194 8.92823 2.679 8.95508C2.68705 8.98241 2.69175 9.01062 2.693 9.03908V10.0631C2.693 10.0701 2.693 10.0841 2.686 10.0841C2.679 10.0911 2.672 10.0911 2.666 10.0911H2.413C2.406 10.0911 2.392 10.0911 2.392 10.0841C2.385 10.0771 2.385 10.0701 2.385 10.0641V9.74008C2.385 9.73308 2.385 9.72008 2.378 9.72008C2.371 9.71208 2.364 9.71208 2.357 9.71208H1.999C1.992 9.71208 1.978 9.71208 1.978 9.71908C1.971 9.72608 1.971 9.73308 1.971 9.74008V10.0631C1.971 10.0841 1.957 10.0981 1.936 10.0981H1.683C1.67837 10.0982 1.67375 10.0974 1.66944 10.0957C1.66514 10.094 1.66122 10.0914 1.65794 10.0881C1.65467 10.0849 1.65209 10.0809 1.65038 10.0766C1.64867 10.0723 1.64786 10.0677 1.648 10.0631V9.03908C1.648 9.01108 1.655 8.98308 1.662 8.95508C1.67444 8.93085 1.68847 8.90746 1.704 8.88508C1.72287 8.86471 1.74715 8.85014 1.774 8.84308C1.802 8.82908 1.831 8.82908 1.859 8.82908H2.483ZM2.371 9.43208V9.11608H1.943V9.43208H2.371ZM1.213 8.85008C1.241 8.86408 1.263 8.87808 1.283 8.89208C1.30374 8.91082 1.31866 8.93511 1.326 8.96208C1.33405 8.98941 1.33875 9.01762 1.34 9.04608V10.0701C1.34 10.0771 1.34 10.0911 1.333 10.0911C1.326 10.0981 1.319 10.0981 1.312 10.0981H1.059C1.052 10.0981 1.045 10.0981 1.038 10.0911C1.031 10.0841 1.031 10.0771 1.031 10.0711V9.14408H0.828V10.0701C0.828 10.0771 0.828 10.0911 0.821 10.0911C0.814 10.0981 0.807 10.0981 0.8 10.0981H0.568C0.561 10.0981 0.547 10.0981 0.547 10.0911C0.54 10.0841 0.54 10.0771 0.54 10.0711V9.14408H0.337V10.0701C0.337 10.0911 0.323 10.1051 0.302 10.1051H0.049C0.0443662 10.1052 0.039753 10.1044 0.0354441 10.1027C0.0311351 10.101 0.0272213 10.0984 0.0239432 10.0951C0.0206652 10.0919 0.0180921 10.0879 0.0163822 10.0836C0.0146722 10.0793 0.0138616 10.0747 0.014 10.0701V8.87008C0.014 8.85008 0.028 8.83608 0.049 8.83608H1.143C1.164 8.82908 1.193 8.83608 1.213 8.85008Z" fill="white"/>
</g>
<defs>
<clipPath id="clip0_46_3">
<rect width="24" height="10" fill="white"/>
</clipPath>
</defs>
</svg>
