<svg width="1411" height="299" viewBox="0 0 1411 299" fill="none" xmlns="http://www.w3.org/2000/svg">
<g clip-path="url(#clip0_48_2)">
<path d="M141.1 176.5H48.5V293H0V0H141.2C210 0 240.9 40.6 240.9 88.2C240.9 135.8 210 176.4 141.2 176.4L141.1 176.5ZM139.3 44.6H48.4V131.9H139.3C171.9 131.9 192.2 116 192.2 88.2C192.2 60.4 171.9 44.6 139.3 44.6Z" fill="white"/>
<path d="M388.6 232.9H439.3C424.3 273.5 385.1 298.6 340.1 298.6C295.1 298.6 230.3 252.7 230.3 189.6C230.3 126.5 274.8 81.1 337.9 81.1C401 81.1 442.5 127.9 442.5 187.8C442.5 194 442.5 200.2 441.6 206.3H278.8C284.1 235.4 309.2 255.2 340.1 255.2C371 255.2 378.5 248.2 388.6 232.7V232.9ZM279.6 168.9H393C388.6 141.6 367.4 123 337.9 123C308.4 123 283.7 141.6 279.7 168.9H279.6Z" fill="white"/>
<path d="M510.8 86.9V112C521 97 543.4 85.1 573.9 85.1H592.9V129.7H573.9C533.7 129.7 510.8 155.3 510.8 193.2V292.9H464V86.9H510.8Z" fill="white"/>
<path d="M888 35.3V86.9001H952.4V127.9H888V221C888 240.9 898.1 251.9 919.3 251.9H952.4V292.9H918.9C867.3 292.9 841.3 267.8 841.3 228.9V127.9H803.4V86.9001H841.3V35.3H888.1H888Z" fill="white"/>
<path d="M1185.8 190.2C1185.8 252 1138.6 298.7 1076 298.7C1013.4 298.7 965.7 251.9 965.7 190.2C965.7 128.5 1012.9 81.3 1076 81.3C1139.1 81.3 1185.8 127.6 1185.8 190.2ZM1139 190.2C1139 152.3 1112.5 124.5 1075.9 124.5C1039.3 124.5 1012.4 152.3 1012.4 190.2C1012.4 228.1 1039.3 255.5 1075.9 255.5C1112.5 255.5 1139 227.3 1139 190.2Z" fill="white"/>
<path d="M1410.4 170.3V292.9H1363.6V176.9C1363.6 145.1 1346.4 124.4 1312 124.4C1277.6 124.4 1253.8 147.8 1253.8 187V292.9H1207V86.8999H1253.8V105.9C1266.1 91.2999 1290 81.2 1319.5 81.2C1374.6 81.2 1410.4 116.5 1410.4 170.3Z" fill="white"/>
<path d="M694.8 85.2H618.2L618.8 129.4H695.7C725.7 129.4 750.4 135 750.4 163.2H692.6C644.5 163.2 598.6 178.6 598.6 229.4C598.6 280.2 631.7 298.7 681.1 298.7C730.5 298.7 734.9 290.3 750.3 274V293H797.1V163.3C797.1 110.8 755.7 86.1 694.8 85.2ZM750.4 211.8C750.4 241.4 723.9 259 688.6 259C653.3 259 645.4 248 645.4 229.4C645.4 210.8 663.1 200.7 692.2 200.7H750.4V211.7V211.8Z" fill="white"/>
</g>
<defs>
<clipPath id="clip0_48_2">
<rect width="1410.4" height="298.7" fill="white"/>
</clipPath>
</defs>
</svg>
