<?xml version="1.0" encoding="UTF-8" standalone="no"?>
<!DOCTYPE svg PUBLIC "-//W3C//DTD SVG 1.1//EN" "http://www.w3.org/Graphics/SVG/1.1/DTD/svg11.dtd">
<svg width="100%" height="100%" viewBox="0 0 750 203" version="1.1" xmlns="http://www.w3.org/2000/svg" xmlns:xlink="http://www.w3.org/1999/xlink" xml:space="preserve" xmlns:serif="http://www.serif.com/" style="fill-rule:evenodd;clip-rule:evenodd;stroke-linejoin:round;stroke-miterlimit:2;">
    <g transform="matrix(1,0,0,1,-57.48,-330.74)">
        <g transform="matrix(2,0,0,2,0,0)">
            <path d="M382.02,234.34C378.22,228.63 374.46,222.88 370.7,217.17C370.57,216.93 370.57,216.43 370.7,216.2C374.56,210.29 378.46,204.41 382.32,198.53C385.41,193.86 388.47,189.16 391.53,184.49C394.72,179.69 397.91,174.88 401.11,170.11C401.82,169.07 402.49,167.99 403.26,166.82L306.54,166.82C307.31,168.03 308.05,169.21 308.79,170.35C311.07,173.84 313.36,177.34 315.64,180.83C320.51,188.19 325.42,195.55 330.29,202.94C333.25,207.37 336.14,211.88 339.09,216.31C339.33,216.65 339.36,216.78 339.09,217.15C336.5,221.01 333.95,224.91 331.4,228.81C330.8,229.75 330.16,230.66 329.38,231.77C328.51,229.85 327.73,228.21 326.96,226.56C325.45,223.4 323.9,220.21 322.39,217.05C320.17,212.38 317.96,207.74 315.74,203.07C314.23,199.91 312.68,196.72 311.17,193.56C308.89,188.82 306.63,184.09 304.35,179.35C302.87,176.26 301.39,173.17 299.92,170.11C299.18,168.56 298.41,167.02 297.6,165.37C292.33,176.39 287.12,187.31 281.88,198.19C281.81,198.19 281.75,198.16 281.64,198.12L281.64,166.88L238.64,166.88L238.64,195.1L231.82,195.1L231.82,166.85L95.91,166.85C95.31,166.85 94.97,166.98 94.67,167.56C90.6,175.76 86.51,183.92 82.41,192.12C81.17,194.61 79.92,197.13 78.65,199.71C78.52,199.54 78.45,199.47 78.41,199.41C73.1,188.83 67.83,178.24 62.55,167.66C62.25,167.09 61.95,166.85 61.27,166.85C50.69,166.88 40.14,166.85 29.55,166.88C29.31,166.88 29.05,166.91 28.74,166.95C45.37,200.21 61.93,233.37 78.6,266.63C78.87,266.26 79.07,266.03 79.2,265.76C89.98,244.19 100.77,222.62 111.52,201.02C111.86,200.35 112.19,200.18 112.86,200.18C119.48,200.21 126.1,200.18 132.75,200.18C133.05,200.18 133.32,200.21 133.69,200.25L133.69,266.33L167.02,266.33L167.02,200.18L188.92,200.18L188.92,266.53L231.89,266.53L231.89,238.14L238.71,238.14L238.71,266.6L403.23,266.6C402.42,265.29 401.75,264.11 401.01,263.01C394.66,253.43 388.31,243.89 381.99,234.35L382.02,234.34ZM272.59,257.69L247.49,257.69L247.49,229.3L223.03,229.3L223.03,257.69L197.77,257.69L197.77,175.68L222.97,175.68L222.97,203.87L247.46,203.87L247.46,175.72L272.62,175.72L272.59,257.7L272.59,257.69ZM281.63,257.63L281.63,232.7C281.63,228.43 281.63,224.2 281.66,219.97C281.66,219.33 281.83,218.59 282.13,218.02C283.54,215.03 284.99,212.04 286.43,209.05C286.9,208.04 287.4,207.07 287.87,206.06C289.99,201.63 292.1,197.22 294.22,192.79C295.16,190.77 296.1,188.76 297.04,186.74C297.14,186.54 297.28,186.37 297.41,186.2C297.44,186.13 297.51,186.1 297.54,186.03C297.64,186.13 297.74,186.27 297.84,186.37C297.87,186.44 297.94,186.47 297.97,186.54C298,186.61 298.04,186.67 298.07,186.71C301.03,192.86 303.95,198.97 306.91,205.12C308.32,208.08 309.73,211 311.11,213.92C313.33,218.56 315.51,223.19 317.73,227.8C319.17,230.82 320.65,233.85 322.1,236.87C323.85,240.5 325.59,244.13 327.34,247.76C328.85,250.92 330.3,254.11 331.77,257.3C331.84,257.4 331.84,257.54 331.87,257.57L281.61,257.64L281.63,257.63ZM385.71,257.73L342.84,257.73C342.13,257.73 341.76,257.56 341.43,256.86C339.01,251.75 336.52,246.68 334.11,241.57C333.98,241.3 334.04,240.83 334.21,240.6C336.16,237.58 338.17,234.62 340.16,231.6C341.67,229.32 343.18,227 344.66,224.71C346.44,222.09 348.12,219.6 349.8,217.08C349.93,216.84 349.87,216.34 349.73,216.11C347.11,212.11 344.46,208.11 341.8,204.15C337.4,197.53 332.96,190.91 328.56,184.26C327.15,182.14 325.77,179.99 324.36,177.84C323.89,177.1 323.42,176.4 322.95,175.66L386.78,175.66C386.28,176.43 385.81,177.17 385.3,177.94C384.59,179.02 383.89,180.09 383.18,181.17C377.23,190.14 371.25,199.11 365.31,208.11C364.44,209.45 363.56,210.8 362.69,212.14C361.82,213.48 360.94,214.83 360.1,216.17C360.03,216.27 360,216.47 360,216.64C360,216.81 360.03,217.01 360.1,217.11C364.67,224.06 369.27,230.99 373.84,237.94C374.92,239.59 375.99,241.23 377.1,242.85C378.18,244.5 379.25,246.14 380.36,247.79C382.51,251.08 384.69,254.37 386.88,257.7L385.7,257.73L385.71,257.73Z" fill="#000000" style="fill-rule:nonzero;"/>
        </g>
    </g>
</svg>
